<svg width="1200" height="800" viewBox="0 0 1200 800" fill="none" xmlns="http://www.w3.org/2000/svg">
  <defs>
    <linearGradient id="bg" x1="0" y1="0" x2="1" y2="1">
      <stop offset="0%" stop-color="#0f172a"/>
      <stop offset="55%" stop-color="#111a2e"/>
      <stop offset="100%" stop-color="#1e1b4b"/>
    </linearGradient>
    <linearGradient id="accent" x1="0" y1="0" x2="1" y2="0">
      <stop offset="0%" stop-color="#ff4b2b"/>
      <stop offset="55%" stop-color="#ff8a3d"/>
      <stop offset="100%" stop-color="#7c3aed"/>
    </linearGradient>
  </defs>
  <rect width="1200" height="800" rx="24" fill="url(#bg)"/>
  <rect x="56" y="64" width="1088" height="672" rx="18" stroke="#334155" fill="#0b1222"/>
  <rect x="92" y="112" width="420" height="260" rx="14" fill="#111a2e" stroke="#334155"/>
  <rect x="528" y="112" width="580" height="120" rx="14" fill="#111a2e" stroke="#334155"/>
  <rect x="528" y="252" width="580" height="120" rx="14" fill="#111a2e" stroke="#334155"/>
  <rect x="92" y="392" width="1016" height="296" rx="14" fill="#111a2e" stroke="#334155"/>
  <path d="M132 608C226 478 332 560 420 452C496 360 605 344 710 456C796 548 900 520 1068 432" stroke="url(#accent)" stroke-width="6" stroke-linecap="round"/>
  <circle cx="422" cy="452" r="8" fill="#ff8a3d"/>
  <circle cx="710" cy="456" r="8" fill="#7c3aed"/>
  <circle cx="1068" cy="432" r="8" fill="#ff4b2b"/>
</svg>
